inDegrees=yes
name=ik_lifting_orientations
DataType=double
version=3
OpenSimVersion=4.5-2024-01-10-34fd6af
endheader
time	pelvis_tilt	pelvis_list	pelvis_rotation	pelvis_tx	pelvis_ty	pelvis_tz	hip_flexion_r	hip_adduction_r	hip_rotation_r	knee_angle_r	knee_angle_r_beta	ankle_angle_r	subtalar_angle_r	mtp_angle_r	hip_flexion_l	hip_adduction_l	hip_rotation_l	knee_angle_l	knee_angle_l_beta	ankle_angle_l	subtalar_angle_l	mtp_angle_l	lumbar_extension	lumbar_bending	lumbar_rotation	arm_flex_r	arm_add_r	arm_rot_r	elbow_flex_r	pro_sup_r	wrist_flex_r	wrist_dev_r	arm_flex_l	arm_add_l	arm_rot_l	elbow_flex_l	pro_sup_l	wrist_flex_l	wrist_dev_l
0.57	0.008358569628368902	0.009696789027794918	2.43159722347296	0	0.9399999999999999	0	44.52788019301254	-10.00242411529592	0	59.97831828059866	1.046819133805551	-5.000232578386305	0	0	44.52788019301254	-10.00242411529592	0	59.97831828059866	1.046819133805551	-5.000232578386305	0	0	-0.01349654498686463	-0.01079133088420862	0.002847038489670221	0.1430961328773959	-0.9796073237608215	-0.1272744255412484	1.294103273056172	45.00213423727695	0	0	0	-13.33524883131555	0	75.04242355314815	45.00213423727695	0	0
0.58	0.006977165966075949	0.001744532113911933	2.433093830067194	0	0.9399999999999999	0	44.53758484340249	-10.00226873831784	0	59.97867269831126	1.046825319561563	-5.000213982269323	0	0	44.53758484340249	-10.00226873831784	0	59.97867269831126	1.046825319561563	-5.000213982269323	0	0	0.003515821546545421	0.001714298185734081	-0.001330175416449338	0.1300505880031723	-0.9865425707763368	-0.1282472757738264	1.278348861583371	45.00202248523264	0	0	0	-13.35316258191356	0	75.04155516420138	45.00202248523264	0	0
0.59	0.0001538196816363005	0.000210447948126006	2.433630978146442	0	0.9399999999999999	0	44.54679041283215	-10.00212587837389	0	59.979009926645	1.046831205306318	-5.000197087380209	0	0	44.54679041283215	-10.00212587837389	0	59.979009926645	1.046831205306318	-5.000197087380209	0	0	-0.000433152348620541	-8.235638863282522e-05	0.0003973709887276513	0.1364381525791503	-0.9825444955274515	-0.1280440363703508	1.29707218063872	45.00191884260722	0	0	0	-13.37026752290176	0	75.0407314327377	45.00191884260722	0	0
0.6	0.004586347035947879	0.01211408209177804	2.427294651769601	0	0.9399999999999999	0	44.55491439801987	-10.00201034568184	0	59.97930691005165	1.046836388644588	-5.000183843525445	0	0	44.55491439801987	-10.00201034568184	0	59.97930691005165	1.046836388644588	-5.000183843525445	0	0	4.626451304893941e-05	-0.01319535734002691	0.01350527539663024	0.1132725555949949	-0.9863338446688388	-0.1334343160130562	1.326944073211332	45.00183305873338	0	0	0	-13.38567163045468	0	75.04000448012951	45.00183305873338	0	0
0.61	-0.0009922414363758548	0.001522384180000572	2.433455453447066	0	0.9399999999999999	0	44.56393618734083	-10.00188210807422	0	59.97964043158002	1.046842209693384	-5.00016916751126	0	0	44.56393618734083	-10.00188210807422	0	59.97964043158002	1.046842209693384	-5.00016916751126	0	0	-0.003497718013375916	-0.002151405886820531	0.0002034883749143549	0.1388108993809007	-0.9812308751683827	-0.1286052551562591	1.303733146319654	45.00173776343788	0	0	0	-13.40276193364004	0	75.03919719044268	45.00173776343788	0	0
0.62	0.02329188564903998	0.008412007658229453	2.439840965707644	0	0.9399999999999999	0	44.56715538059361	-10.0018494900276	0	59.97979212823206	1.046844857299426	-5.000165679057075	0	0	44.56715538059361	-10.0018494900276	0	59.97979212823206	1.046844857299426	-5.000165679057075	0	0	-0.03357559909711668	-0.008220727761046695	-0.004923541837615233	0.2470186375011893	-1.177595436818195	-0.2763181820089222	2.737597123400997	45.0017119663265	0	0	0	-13.4099878201824	0	75.03890912472055	45.0017119663265	0	0
0.63	-0.01695940482716054	-0.003873498788270303	2.433137972270525	0	0.9399999999999999	0	44.57652236041901	-10.00172600709013	0	59.98014059346701	1.046850939165105	-5.000151928231376	0	0	44.57652236041901	-10.00172600709013	0	59.98014059346701	1.046850939165105	-5.000151928231376	0	0	0.03994102531518546	0.008893121726523427	0.0039265057845437	0.1976692734114544	-1.181884946258759	-0.2752185817869096	2.764920808575015	45.00161833110631	0	0	0	-13.4280457454552	0	75.0380709437149	45.00161833110631	0	0
0.64	0.001103075781088239	-0.001589582761419515	2.432477580369257	0	0.9399999999999999	0	44.58596519160599	-10.00160266211356	0	59.98049208236288	1.046857073803622	-5.000138240228635	0	0	44.58596519160599	-10.00160266211356	0	59.98049208236288	1.046857073803622	-5.000138240228635	0	0	0.001091679405503143	0.00173613557297362	0.001603848616147425	0.2328595263237359	-1.173836352401129	-0.2764744664469509	2.741877254877206	45.00152456582123	0	0	0	-13.44628605820251	0	75.03722597497629	45.00152456582123	0	0
0.65	0.008397534593632025	0.0003142344120795265	2.43228415030602	0	0.9399999999999999	0	44.58866952170905	-10.00157798162824	0	59.98062046753639	1.046859314547611	-5.000135703515775	0	0	44.58866952170905	-10.00157798162824	0	59.98062046753639	1.046859314547611	-5.000135703515775	0	0	-0.01255489913038977	0.001155149851172067	0.002289543567290675	0.19565549961047	-0.9664783246195163	0.04674657917502965	3.788250760984206	45.00150447555979	0	0	0	-13.4524957589312	0	75.03698398050361	45.00150447555979	0	0
0.66	0.002236930641463082	0.002090752956793144	2.438066392802357	0	0.9399999999999999	0	44.58874789011596	-10.00157692779892	0	59.98062337834818	1.04685936535086	-5.000135585101847	0	0	44.58874789011596	-10.00157692779892	0	59.98062337834818	1.04685936535086	-5.000135585101847	0	0	-0.0259623459163634	-0.009430816726711137	-0.004839545887295094	0.2631464217094324	-1.006402878863469	-0.02213431148720694	4.548465917693969	45.00150368135575	0	0	0	-13.45264642170533	0	75.03697696790665	45.00150368135575	0	0
0.67	-0.00646371473931542	-0.01442683297422491	2.462381501004677	0	0.9399999999999999	0	44.58973956544654	-10.00156485252306	0	59.98066063336716	1.046860015573604	-5.000134278396605	0	0	44.58973956544654	-10.00156485252306	0	59.98066063336716	1.046860015573604	-5.000134278396605	0	0	0.03464828374992699	0.0135244032111443	-0.01520849930800395	0.1659218343056908	-1.01298364565627	-0.05118847670464637	4.609920926636057	45.00149432939594	0	9.350961742247632e-65	0	-13.4545960670694	0	75.03688823001296	45.00149432939594	0	9.350961742247632e-65
0.68	0.009737981526615334	0.004947626932894244	2.435310563949486	0	0.9399999999999999	0	44.58984456624906	-10.00156344884397	0	59.98066453617365	1.046860083690428	-5.000134121018001	0	0	44.58984456624906	-10.00156344884397	0	59.98066453617365	1.046860083690428	-5.000134121018001	0	0	-0.01863772400114118	-0.006656638752766536	-0.003054767476464239	0.2587211301553083	-1.163670424991213	-0.1037694798260741	5.296783846562716	45.00149326983914	0	0	0	-13.45479820775654	0	75.03687883428172	45.00149326983914	0	0
0.6899999999999999	0.002566303509947912	0.001303939282827418	2.435962246087406	0	0.9399999999999999	0	44.58992445196925	-10.00156238151537	0	59.98066750544484	1.046860135513986	-5.000134001381596	0	0	44.58992445196925	-10.00156238151537	0	59.98066750544484	1.046860135513986	-5.000134001381596	0	0	-0.01527158136155084	-0.00565067782250216	-0.003246891076781792	0.2842558879245074	-1.185343205692956	-0.1412656318602677	5.686207765145034	45.0014924640326	0	0	0	-13.45495200968802	0	75.03687168591	45.0014924640326	0	0
